<svg width="100%" height="100%" viewBox="0 0 700 700" version="1.1" xmlns="http://www.w3.org/2000/svg" xmlns:xlink="http://www.w3.org/1999/xlink" xml:space="preserve" xmlns:serif="http://www.serif.com/" style="fill-rule:evenodd;clip-rule:evenodd;stroke-linejoin:round;stroke-miterlimit:2;"><path d="M660.861,358.291c-0,10.872 -0.553,21.615 -1.652,32.208l-0.302,-0.008c-11.524,-0.332 -23.094,-0.137 -34.638,0.622c-11.547,0.812 -23.077,2.136 -34.532,4.067c-11.441,1.954 -22.851,4.41 -34.055,7.508c-7.008,1.892 -13.94,4.021 -20.798,6.371c2.053,-9.008 3.591,-18.132 4.56,-27.321c1.553,-14.79 1.613,-29.744 0.045,-44.511c-1.56,-14.774 -4.749,-29.359 -9.545,-43.359c-4.795,-14 -11.197,-27.41 -19.009,-39.873c-7.804,-12.47 -17.009,-23.987 -27.275,-34.359c-10.266,-10.372 -21.592,-19.6 -33.623,-27.653c-24.056,-16.129 -50.882,-27.517 -78.241,-35.344l-0.454,-0.129l-0.302,0.007l-1.515,0.038c-11.856,-15.358 -36.517,-47.3 -57.708,-53.209c184.345,-81.337 348.44,56.706 349.044,254.945Z" style="fill:url(#_Linear1);fill-rule:nonzero;"/><path d="M552.05,581.493c77.719,-53.748 105.236,-121.587 110.124,-223.269c5.447,-113.41 -49.934,-215.662 -137.43,-275.134c-14.31,-9.727 -29.48,-18.309 -45.383,-25.609c-35.463,-16.278 -74.574,-26.177 -115.939,-28.163c-173.33,-8.333 -320.583,125.422 -328.915,298.744c-1.067,22.225 0.205,44.023 3.592,65.146c0.853,-1.92 1.738,-3.821 2.642,-5.714c-1.607,-15.164 -2.068,-30.655 -1.312,-46.359c7.972,-165.958 148.967,-294.03 314.925,-286.051c44.182,2.122 85.678,13.673 122.637,32.612c101.867,52.202 169.262,160.537 163.414,282.313c-4.682,97.36 -2.138,150.302 -76.552,201.77l-11.803,9.714Z" style="fill:url(#_Radial2);fill-rule:nonzero;"/><path d="M535.99,423.947c-0.137,0.477 -0.282,0.954 -0.424,1.431l-1.819,-0.401c0.743,-0.347 1.492,-0.695 2.243,-1.03Z" style="fill:url(#_Linear3);fill-rule:nonzero;"/><path d="M548.384,602.241c-220.818,184.998 -574.486,-30.934 -501.647,-316.786c0.183,-0.137 0.348,-0.295 0.492,-0.47c0.251,-0.294 0.447,-0.629 0.591,-0.977c12.955,-1.167 25.964,-1.606 38.934,-1.311l9.842,0.362l9.812,0.721l2.453,0.183c0.817,0.068 1.629,0.182 2.446,0.266l9.773,1.091c1.622,0.213 3.243,0.477 4.864,0.713l4.857,0.728c1.621,0.226 3.242,0.47 4.848,0.794l9.66,1.797c6.393,1.416 12.797,2.765 19.107,4.508c12.638,3.365 25.124,7.29 37.275,12.093c48.745,18.796 93.02,48.585 128.501,86.347l3.334,3.529l6.409,7.287l1.598,1.827c0.523,0.614 1.03,1.251 1.538,1.87l6.13,7.523l5.848,7.728c7.652,10.434 14.683,21.161 21.153,32.51c1.781,2.849 3.644,5.729 5.463,8.591l2.75,4.296l2.91,4.143l5.841,8.274l6.183,8.007l3.106,4.002l3.258,3.871l6.538,7.729l6.833,7.462l3.433,3.719l3.56,3.591l7.144,7.175l7.417,6.894l3.712,3.44l3.841,3.296l7.69,6.599l7.94,6.295l3.978,3.144l4.082,2.999l8.191,5.978l8.418,5.675l4.212,2.835c1.423,0.915 2.88,1.781 4.311,2.674l8.652,5.333c2.933,1.697 5.901,3.334 8.857,5.001l4.433,2.491c1.492,0.81 3.014,1.553 4.524,2.335l9.075,4.628c3.075,1.446 6.173,2.841 9.266,4.265l4.638,2.128c0.64,0.275 1.282,0.538 1.926,0.797Z" style="fill:url(#_Linear4);fill-rule:nonzero;"/><path d="M523.308,340.671c0.713,13.508 -0.061,27.069 -2.175,40.41c-2.037,12.818 -5.318,25.433 -9.621,37.683c-0.122,0.327 -0.606,1.553 -0.984,2.515c-16.896,7.332 -33.269,16.015 -48.906,25.94c-9.925,6.341 -19.592,13.123 -28.866,20.433c-6.84,5.34 -13.478,10.955 -19.91,16.819l-0.915,-1.015l-3.083,-3.712l-6.158,-7.439l-5.826,-7.698l-2.91,-3.857l-2.712,-3.94c-1.804,-2.644 -3.621,-5.234 -5.425,-7.916c-6.977,-11.342 -14.789,-22.45 -23.099,-33.002l-6.348,-7.835l-6.63,-7.591c-0.553,-0.63 -1.098,-1.274 -1.659,-1.896l-1.728,-1.834l-3.448,-3.674l-3.448,-3.659l-3.575,-3.544l-3.575,-3.537c-0.599,-0.591 -1.19,-1.19 -1.796,-1.766l-1.85,-1.705l-7.401,-6.802l-7.63,-6.547c-0.636,-0.545 -1.266,-1.098 -1.91,-1.628l-1.961,-1.568l-3.926,-3.129l-3.932,-3.121l-8.061,-5.985c-0.675,-0.492 -1.335,-1 -2.015,-1.484l-2.068,-1.424l-8.266,-5.683l-8.439,-5.394c-0.621,-0.386 -1.251,-0.774 -1.877,-1.152c77.005,-20.471 144.442,-103.522 103.915,-170.784c12.409,4.394 24.433,9.456 36.049,15.381c12.478,6.348 24.418,13.668 35.547,22.008c11.128,8.334 21.434,17.682 30.601,27.985c9.175,10.289 17.198,21.524 23.827,33.479c6.638,11.948 11.864,24.609 15.576,37.671c3.715,13.054 5.912,26.493 6.618,39.997Z" style="fill:url(#_Linear5);fill-rule:nonzero;"/><path d="M656.724,396.787c-8.751,75.239 -44.125,142.344 -96.468,191.658l-7.797,-2.872c-1.492,-0.561 -2.994,-1.091 -4.486,-1.667l-4.409,-1.85c-2.949,-1.236 -5.902,-2.446 -8.835,-3.712l-8.683,-4.067c-1.446,-0.683 -2.91,-1.335 -4.341,-2.045l-4.257,-2.213c-2.842,-1.484 -5.696,-2.933 -8.523,-4.447l-8.35,-4.765c-1.395,-0.805 -2.803,-1.576 -4.174,-2.403l-4.082,-2.553l-8.16,-5.107l-7.969,-5.425l-3.979,-2.712l-3.879,-2.865l-7.759,-5.734l-7.53,-6.038l-3.766,-3.015l-3.643,-3.158l-7.297,-6.326l-7.031,-6.614l-3.522,-3.311l-3.387,-3.441l-0.469,-0.477c5.729,-6.031 11.691,-11.849 17.887,-17.441c8.251,-7.5 16.926,-14.546 25.895,-21.229c17.994,-13.28 37.359,-24.842 57.768,-34.397c10.19,-4.773 20.668,-9.061 31.312,-12.773c10.682,-3.78 21.554,-6.931 32.571,-9.636c11.032,-2.667 22.213,-4.773 33.486,-6.364c10.758,-1.476 21.6,-2.463 32.487,-2.948c0.005,0 1.39,-0.061 1.39,-0.053Z" style="fill:url(#_Linear6);fill-rule:nonzero;"/><defs><linearGradient id="_Linear1" x1="0" y1="0" x2="1" y2="0" gradientUnits="userSpaceOnUse" gradientTransform="matrix(1523.5,0,0,2481.39,-862.64,-569.645)"><stop offset="0" style="stop-color:#171331;stop-opacity:1"/><stop offset="1" style="stop-color:#377abb;stop-opacity:1"/></linearGradient><radialGradient id="_Radial2" cx="0" cy="0" r="1" gradientUnits="userSpaceOnUse" gradientTransform="matrix(314.202,0,0,276.272,348.341,305.221)"><stop offset="0" style="stop-color:#fff;stop-opacity:1"/><stop offset="1" style="stop-color:#377abb;stop-opacity:1"/></radialGradient><linearGradient id="_Linear3" x1="0" y1="0" x2="1" y2="0" gradientUnits="userSpaceOnUse" gradientTransform="matrix(1523.5,0,0,2481.39,-857.64,-569.645)"><stop offset="0" style="stop-color:#171331;stop-opacity:1"/><stop offset="1" style="stop-color:#377abb;stop-opacity:1"/></linearGradient><linearGradient id="_Linear4" x1="0" y1="0" x2="1" y2="0" gradientUnits="userSpaceOnUse" gradientTransform="matrix(1523.5,0,0,2481.39,-857.64,-569.645)"><stop offset="0" style="stop-color:#171331;stop-opacity:1"/><stop offset="1" style="stop-color:#377abb;stop-opacity:1"/></linearGradient><linearGradient id="_Linear5" x1="0" y1="0" x2="1" y2="0" gradientUnits="userSpaceOnUse" gradientTransform="matrix(1523.5,0,0,2481.39,-860.64,-567.645)"><stop offset="0" style="stop-color:#171331;stop-opacity:1"/><stop offset="1" style="stop-color:#377abb;stop-opacity:1"/></linearGradient><linearGradient id="_Linear6" x1="0" y1="0" x2="1" y2="0" gradientUnits="userSpaceOnUse" gradientTransform="matrix(1523.5,0,0,2481.39,-864.64,-566.645)"><stop offset="0" style="stop-color:#171331;stop-opacity:1"/><stop offset="1" style="stop-color:#377abb;stop-opacity:1"/></linearGradient></defs></svg>